# xmcd
#
# Track frame offsets:
#   150
#   15824
#   32757
#   47285
#   65623
#   83591
#   96956
#   113269
#   128856
#   148887
#   166064
#   183065
#   201065
#   216053
#   233906
#
# Disc length: 3294 seconds
#
# Revision: 0
# Processed by: cddbd v1.5.2PL0 Copyright (c) Steve Scherf et al.
# Submitted via: uFREEDB ActiveX Control 1.5
#
DISCID=b40cdc0f
DTITLE=BAITACA E GRUPO FUNDO DA GROTA - ESTAMPA DE GALPAO
DYEAR=1900
DGENRE=Country
TTITLE0=ESTAMPA DE GALPAO
TTITLE1=CASTRACAO A PIALO
TTITLE2=VIDA BRABA
TTITLE3=FRUTAS DA MATA
TTITLE4=DE CHAO BATIDO
TTITLE5=TRANCAO FANDANGUEIRO
TTITLE6=GAUCHA SERRANA
TTITLE7=PEAO CAPRICHOSO
TTITLE8=FENELOISMO CAMPEIRO
TTITLE9=BUGIO VETERANO
TTITLE10=CORDEONA VEIA
TTITLE11=DO FUNDO DA GROTA
TTITLE12=FAZENDA DA VIUVA
TTITLE13=A HISTORIA DO TICO LOCO
TTITLE14=GASTANDO O TACO DA BOTA
EXTD=
EXTT0=
EXTT1=
EXTT2=
EXTT3=
EXTT4=
EXTT5=
EXTT6=
EXTT7=
EXTT8=
EXTT9=
EXTT10=
EXTT11=
EXTT12=
EXTT13=
EXTT14=
PLAYORDER=
